<svg viewBox="0 0 720 450" xmlns="http://www.w3.org/2000/svg" role="img" aria-label="Pantalla móvil: órdenes técnicas">
  <defs>
    <linearGradient id="g" x1="0" y1="0" x2="1" y2="1"><stop offset="0%" stop-color="#6ea8fe"/><stop offset="100%" stop-color="#b58cff"/></linearGradient>
  </defs>
  <rect width="720" height="450" rx="16" fill="#0b0d12"/>
  <!-- Phone -->
  <rect x="252" y="22" width="216" height="406" rx="32" fill="#11141b" stroke="#ffffff" stroke-opacity="0.1" stroke-width="2"/>
  <rect x="332" y="34" width="56" height="9" rx="4.5" fill="#0b0d12"/>
  <g font-family="Segoe UI, sans-serif">
    <!-- Header -->
    <text x="276" y="74" fill="#f4f6fb" font-size="18" font-weight="700">Órdenes</text>
    <circle cx="442" cy="68" r="14" fill="#181c27"/>
    <text x="442" y="73" fill="#aab2c5" font-size="12" text-anchor="middle">3</text>
    <!-- Filter pills -->
    <rect x="272" y="88" width="64" height="24" rx="12" fill="url(#g)"/>
    <text x="304" y="104" fill="#0b0d12" font-size="11" font-weight="700" text-anchor="middle">Hoy</text>
    <rect x="342" y="88" width="74" height="24" rx="12" fill="#181c27"/>
    <text x="379" y="104" fill="#aab2c5" font-size="11" text-anchor="middle">Pendientes</text>

    <!-- Order cards -->
    <g>
      <rect x="272" y="124" width="176" height="74" rx="12" fill="#181c27"/>
      <text x="286" y="148" fill="#f4f6fb" font-size="13" font-weight="600">#10482 · Instalación</text>
      <text x="286" y="167" fill="#5d677e" font-size="11">Barrio Las Colinas · 09:30</text>
      <rect x="286" y="176" width="78" height="16" rx="8" fill="#6ea8fe" fill-opacity="0.18"/>
      <text x="296" y="188" fill="#6ea8fe" font-size="10" font-weight="700">EN CURSO</text>
    </g>
    <g>
      <rect x="272" y="206" width="176" height="74" rx="12" fill="#181c27"/>
      <text x="286" y="230" fill="#f4f6fb" font-size="13" font-weight="600">#10483 · Soporte TV</text>
      <text x="286" y="249" fill="#5d677e" font-size="11">Reparto San Juan · 11:00</text>
      <rect x="286" y="258" width="84" height="16" rx="8" fill="#b58cff" fill-opacity="0.18"/>
      <text x="296" y="270" fill="#b58cff" font-size="10" font-weight="700">PENDIENTE</text>
    </g>
    <g>
      <rect x="272" y="288" width="176" height="74" rx="12" fill="#181c27"/>
      <text x="286" y="312" fill="#f4f6fb" font-size="13" font-weight="600">#10479 · Internet</text>
      <text x="286" y="331" fill="#5d677e" font-size="11">Villa Fontana · 08:15</text>
      <rect x="286" y="340" width="92" height="16" rx="8" fill="#3ddc97" fill-opacity="0.16"/>
      <text x="296" y="352" fill="#3ddc97" font-size="10" font-weight="700">COMPLETADA</text>
    </g>

    <!-- Bottom nav -->
    <rect x="272" y="378" width="176" height="36" rx="18" fill="#181c27"/>
    <circle cx="300" cy="396" r="5" fill="url(#g)"/>
    <circle cx="360" cy="396" r="5" fill="#5d677e"/>
    <circle cx="420" cy="396" r="5" fill="#5d677e"/>
  </g>
</svg>
