<svg viewBox="0 0 720 450" xmlns="http://www.w3.org/2000/svg" role="img" aria-label="Pantalla móvil: inventario">
  <defs>
    <linearGradient id="g" x1="0" y1="0" x2="1" y2="1"><stop offset="0%" stop-color="#6ea8fe"/><stop offset="100%" stop-color="#b58cff"/></linearGradient>
  </defs>
  <rect width="720" height="450" rx="16" fill="#0b0d12"/>
  <rect x="252" y="22" width="216" height="406" rx="32" fill="#11141b" stroke="#ffffff" stroke-opacity="0.1" stroke-width="2"/>
  <rect x="332" y="34" width="56" height="9" rx="4.5" fill="#0b0d12"/>
  <g font-family="Segoe UI, sans-serif">
    <text x="276" y="74" fill="#f4f6fb" font-size="18" font-weight="700">Inventario</text>
    <text x="276" y="92" fill="#5d677e" font-size="11">Asignado a mi unidad</text>

    <!-- Search -->
    <rect x="272" y="104" width="176" height="32" rx="10" fill="#181c27"/>
    <circle cx="290" cy="120" r="6" fill="none" stroke="#5d677e" stroke-width="2"/>
    <path d="M295 125 l5 5" stroke="#5d677e" stroke-width="2" stroke-linecap="round"/>
    <text x="306" y="124" fill="#5d677e" font-size="11">Buscar equipo…</text>

    <!-- Items -->
    <g>
      <rect x="272" y="146" width="176" height="56" rx="12" fill="#181c27"/>
      <rect x="284" y="158" width="32" height="32" rx="8" fill="url(#g)" fill-opacity="0.2"/>
      <text x="328" y="170" fill="#f4f6fb" font-size="12" font-weight="600">Router ONT</text>
      <text x="328" y="186" fill="#5d677e" font-size="10">SKU ONT-200</text>
      <text x="438" y="178" fill="#3ddc97" font-size="15" font-weight="700" text-anchor="end">14</text>
    </g>
    <g>
      <rect x="272" y="210" width="176" height="56" rx="12" fill="#181c27"/>
      <rect x="284" y="222" width="32" height="32" rx="8" fill="url(#g)" fill-opacity="0.2"/>
      <text x="328" y="234" fill="#f4f6fb" font-size="12" font-weight="600">Decodificador TV</text>
      <text x="328" y="250" fill="#5d677e" font-size="10">SKU STB-HD</text>
      <text x="438" y="242" fill="#3ddc97" font-size="15" font-weight="700" text-anchor="end">8</text>
    </g>
    <g>
      <rect x="272" y="274" width="176" height="56" rx="12" fill="#181c27"/>
      <rect x="284" y="286" width="32" height="32" rx="8" fill="url(#g)" fill-opacity="0.2"/>
      <text x="328" y="298" fill="#f4f6fb" font-size="12" font-weight="600">Cable drop (m)</text>
      <text x="328" y="314" fill="#5d677e" font-size="10">SKU FBR-DRP</text>
      <text x="438" y="306" fill="#ffb454" font-size="15" font-weight="700" text-anchor="end">120</text>
    </g>
    <g>
      <rect x="272" y="338" width="176" height="56" rx="12" fill="#181c27"/>
      <rect x="284" y="350" width="32" height="32" rx="8" fill="url(#g)" fill-opacity="0.2"/>
      <text x="328" y="362" fill="#f4f6fb" font-size="12" font-weight="600">Conectores SC</text>
      <text x="328" y="378" fill="#5d677e" font-size="10">SKU CON-SC</text>
      <text x="438" y="370" fill="#ff6b6b" font-size="15" font-weight="700" text-anchor="end">3</text>
    </g>
  </g>
</svg>
