<svg viewBox="0 0 720 450" xmlns="http://www.w3.org/2000/svg" role="img" aria-label="Pantalla móvil: aprovisionamiento">
  <defs>
    <linearGradient id="g" x1="0" y1="0" x2="1" y2="1"><stop offset="0%" stop-color="#6ea8fe"/><stop offset="100%" stop-color="#b58cff"/></linearGradient>
  </defs>
  <rect width="720" height="450" rx="16" fill="#0b0d12"/>
  <rect x="252" y="22" width="216" height="406" rx="32" fill="#11141b" stroke="#ffffff" stroke-opacity="0.1" stroke-width="2"/>
  <rect x="332" y="34" width="56" height="9" rx="4.5" fill="#0b0d12"/>
  <g font-family="Segoe UI, sans-serif">
    <text x="276" y="74" fill="#f4f6fb" font-size="18" font-weight="700">Aprovisionar</text>
    <text x="276" y="92" fill="#5d677e" font-size="11">Orden #10482 · Villa Fontana</text>

    <!-- Service toggles -->
    <rect x="272" y="106" width="176" height="46" rx="12" fill="#181c27"/>
    <circle cx="296" cy="129" r="11" fill="url(#g)"/>
    <path d="M291 129 l4 4 l7 -8" stroke="#0b0d12" stroke-width="2.5" fill="none" stroke-linecap="round" stroke-linejoin="round"/>
    <text x="316" y="125" fill="#f4f6fb" font-size="12" font-weight="600">Internet</text>
    <text x="316" y="140" fill="#5d677e" font-size="10">Plan 200 Mbps · FTTH</text>

    <rect x="272" y="160" width="176" height="46" rx="12" fill="#181c27"/>
    <circle cx="296" cy="183" r="11" fill="url(#g)"/>
    <path d="M291 183 l4 4 l7 -8" stroke="#0b0d12" stroke-width="2.5" fill="none" stroke-linecap="round" stroke-linejoin="round"/>
    <text x="316" y="179" fill="#f4f6fb" font-size="12" font-weight="600">TV</text>
    <text x="316" y="194" fill="#5d677e" font-size="10">Paquete Full HD · 120 canales</text>

    <!-- Equipment fields -->
    <text x="276" y="232" fill="#aab2c5" font-size="12" font-weight="600">Equipo instalado</text>
    <rect x="272" y="242" width="176" height="34" rx="9" fill="#181c27"/>
    <text x="286" y="263" fill="#5d677e" font-size="11">ONT · Serie</text>
    <rect x="378" y="247" width="60" height="24" rx="7" fill="#0b0d12"/>
    <text x="408" y="263" fill="#6ea8fe" font-size="10" text-anchor="middle">SCAN</text>
    <rect x="272" y="284" width="176" height="34" rx="9" fill="#181c27"/>
    <text x="286" y="305" fill="#5d677e" font-size="11">Decodificador</text>
    <rect x="378" y="289" width="60" height="24" rx="7" fill="#0b0d12"/>
    <text x="408" y="305" fill="#6ea8fe" font-size="10" text-anchor="middle">SCAN</text>

    <!-- Signal -->
    <rect x="272" y="326" width="176" height="30" rx="9" fill="#181c27"/>
    <text x="286" y="345" fill="#aab2c5" font-size="11">Señal óptica</text>
    <text x="438" y="345" fill="#3ddc97" font-size="11" font-weight="700" text-anchor="end">-18.2 dBm</text>

    <rect x="272" y="368" width="176" height="40" rx="12" fill="url(#g)"/>
    <text x="360" y="393" fill="#0b0d12" font-size="13" font-weight="700" text-anchor="middle">Activar servicio</text>
  </g>
</svg>
